<?xml version="1.0" encoding="UTF-8"?>
<!DOCTYPE svg PUBLIC "-//W3C//DTD SVG 1.1//EN" "http://www.w3.org/Graphics/SVG/1.1/DTD/svg11.dtd">
<svg xmlns="http://www.w3.org/2000/svg" version="1.1" width="1510px" height="1510px" style="shape-rendering:geometricPrecision; text-rendering:geometricPrecision; image-rendering:optimizeQuality; fill-rule:evenodd; clip-rule:evenodd" xmlns:xlink="http://www.w3.org/1999/xlink">
<g><path style="opacity:0.991" fill="#2b2c2b" d="M 215.5,493.5 C 249.167,493.5 282.833,493.5 316.5,493.5C 316.667,642.834 316.5,792.167 316,941.5C 314.347,965.502 304.847,985.668 287.5,1002C 278.34,1008.94 268.007,1012.94 256.5,1014C 241.5,1014.67 226.5,1014.67 211.5,1014C 181.627,1007.13 162.461,988.961 154,959.5C 152.109,950.254 150.942,940.92 150.5,931.5C 172.167,931.5 193.833,931.5 215.5,931.5C 215.5,785.5 215.5,639.5 215.5,493.5 Z"/></g>
<g><path style="opacity:0.989" fill="#2b2c2b" d="M 622.5,493.5 C 654.84,493.167 687.174,493.5 719.5,494.5C 696.667,538.167 673.833,581.833 651,625.5C 649.978,635.475 654.478,639.642 664.5,638C 666.5,634.333 668.5,630.667 670.5,627C 702.838,626.167 735.172,626.333 767.5,627.5C 739.094,682.48 711.094,737.646 683.5,793C 683.981,796.814 685.981,799.48 689.5,801C 709.175,801.167 728.842,801.667 748.5,802.5C 733.96,829.08 719.294,855.58 704.5,882C 664.5,882.667 624.5,882.667 584.5,882C 574.324,879.824 568.158,873.658 566,863.5C 564.97,851.015 566.97,839.015 572,827.5C 589.5,791.833 607,756.167 624.5,720.5C 601.841,719.667 579.174,719.167 556.5,719C 545.883,718.787 538.383,713.954 534,704.5C 530.96,689.968 532.626,675.968 539,662.5C 566.844,606.145 594.678,549.811 622.5,493.5 Z"/></g>
<g><path style="opacity:0.995" fill="#2b2c2b" d="M 1138.5,493.5 C 1171.17,493.5 1203.83,493.5 1236.5,493.5C 1236.5,503.833 1236.5,514.167 1236.5,524.5C 1253.84,524.333 1271.17,524.5 1288.5,525C 1341.09,533.92 1373.25,564.42 1385,616.5C 1386.43,644.804 1386.93,673.137 1386.5,701.5C 1435.17,699.238 1469.34,720.238 1489,764.5C 1491.29,771.01 1492.96,777.677 1494,784.5C 1494.67,837.167 1494.67,889.833 1494,942.5C 1485.83,983.672 1460.99,1007.5 1419.5,1014C 1402.8,1014.89 1386.13,1014.56 1369.5,1013C 1332.11,1004.28 1309.61,981.114 1302,943.5C 1301.5,938.845 1301.33,934.179 1301.5,929.5C 1332.5,929.5 1363.5,929.5 1394.5,929.5C 1394.67,894.832 1394.5,860.165 1394,825.5C 1393.08,814.588 1387.58,807.088 1377.5,803C 1330.5,802.5 1283.5,802.333 1236.5,802.5C 1236.5,873.167 1236.5,943.833 1236.5,1014.5C 1203.83,1014.5 1171.17,1014.5 1138.5,1014.5C 1138.5,943.833 1138.5,873.167 1138.5,802.5C 1105.83,802.5 1073.17,802.5 1040.5,802.5C 1040.5,768.833 1040.5,735.167 1040.5,701.5C 1073.17,701.5 1105.83,701.5 1138.5,701.5C 1138.5,675.833 1138.5,650.167 1138.5,624.5C 1117.83,624.5 1097.17,624.5 1076.5,624.5C 1076.5,591.167 1076.5,557.833 1076.5,524.5C 1097.17,524.5 1117.83,524.5 1138.5,524.5C 1138.5,514.167 1138.5,503.833 1138.5,493.5 Z M 1236.5,624.5 C 1248.84,624.333 1261.17,624.5 1273.5,625C 1280.33,626.5 1284.5,630.667 1286,637.5C 1286.5,658.831 1286.67,680.164 1286.5,701.5C 1269.83,701.5 1253.17,701.5 1236.5,701.5C 1236.5,675.833 1236.5,650.167 1236.5,624.5 Z"/></g>
<g><path style="opacity:0.981" fill="#2b2c2b" d="M 1434.5,523.5 C 1474.28,521.777 1493.78,540.777 1493,580.5C 1488.5,603.667 1474.67,617.5 1451.5,622C 1432.84,622.5 1414.17,622.667 1395.5,622.5C 1395.33,603.497 1395.5,584.497 1396,565.5C 1400.38,543.624 1413.21,529.624 1434.5,523.5 Z"/></g>
<g><path style="opacity:0.992" fill="#2b2c2b" d="M 781.5,524.5 C 857.167,524.5 932.833,524.5 1008.5,524.5C 1008.5,558.833 1008.5,593.167 1008.5,627.5C 987.5,627.5 966.5,627.5 945.5,627.5C 945.5,724.167 945.5,820.833 945.5,917.5C 977.5,917.5 1009.5,917.5 1041.5,917.5C 1041.5,949.833 1041.5,982.167 1041.5,1014.5C 928.831,1014.83 816.165,1014.5 703.5,1013.5C 719.372,981.589 735.372,949.756 751.5,918C 783.165,917.5 814.832,917.333 846.5,917.5C 846.5,820.833 846.5,724.167 846.5,627.5C 824.833,627.5 803.167,627.5 781.5,627.5C 781.5,593.167 781.5,558.833 781.5,524.5 Z"/></g>
<g><path style="opacity:0.989" fill="#2b2c2b" d="M 48.5,626.5 C 82.8333,626.5 117.167,626.5 151.5,626.5C 152.332,706.179 145.499,785.179 131,863.5C 126.112,889.832 117.445,914.832 105,938.5C 99.2691,948.565 91.2691,956.231 81,961.5C 78.5423,959.286 76.5423,956.619 75,953.5C 59.735,924.58 44.0683,895.913 28,867.5C 26.5961,865.361 25.7628,863.028 25.5,860.5C 46.3721,783.78 54.0387,705.78 48.5,626.5 Z"/></g>
<g><path style="opacity:0.989" fill="#2b2c2b" d="M 380.5,626.5 C 414.833,626.5 449.167,626.5 483.5,626.5C 477.845,706.099 485.845,784.265 507.5,861C 489.873,893.087 472.373,925.253 455,957.5C 452.679,962.323 449.512,962.823 445.5,959C 433.636,949.121 424.802,936.954 419,922.5C 404.706,884.034 395.372,844.367 391,803.5C 383.888,744.715 380.388,685.715 380.5,626.5 Z"/></g>
<g><path style="opacity:0.989" fill="#2b2c2b" d="M 552.5,907.5 C 557.41,910.447 562.744,912.613 568.5,914C 613.837,914.167 659.17,914.667 704.5,915.5C 687.039,948.254 669.706,981.088 652.5,1014C 608.5,1014.67 564.5,1014.67 520.5,1014C 513.275,1012.57 507.608,1008.9 503.5,1003C 519.979,971.207 536.313,939.374 552.5,907.5 Z"/></g>
</svg>
